# xmcd
#
# Track frame offsets:
#	150
#	12239
#	26826
#	40498
#	50141
#	64139
#	74188
#	87239
#	100523
#	112958
#	125104
#	139306
#	150323
#	160467
#	171896
#	183857
#	195974
#	211049
#	220897
#	232340
#	242625
#	253491
#	265511
#	275434
#	290334
#
# Disc length: 4038 seconds
#
# Revision: 0
# Processed by: cddbd v1.5.2PL0 Copyright (c) Steve Scherf et al.
# Submitted via: EasyCDDAExtractor 11.5.3.1
#
DISCID=790fc419
DTITLE=Various Artist - I'm Ready - The Modern Story
DYEAR=2012
DGENRE=R&B
TTITLE0=John Lee Hooker - I'm Raedy
TTITLE1=The Cadets - Stranded In the Jungle
TTITLE2=Oscar McIollie - Roll, Hot Red, Roll
TTITLE3=The Rockets - Be Lovey Dovey
TTITLE4=Etta James - The Wallflower (Dance with Me Henry)
TTITLE5=Jimmy Beasley - Don't Feel Sorry for Me
TTITLE6=The Cobras - Cindy (Sindy)
TTITLE7=Shirley Gunter - Just Got Rid of a Heartache
TTITLE8=Jimmy Mc Cracklin - I Told Ya Mama
TTITLE9=Jesse Belvin - You Send Me
TTITLE10=Dennis Binder - I Miss You So
TTITLE11=The Cliques - I Wanna Know Why
TTITLE12=The Hawks - Ever Since You've Been Gone
TTITLE13=Young Jessie - Hit Git and Split
TTITLE14=Marvin and Johnny - Ko Ko Mo (I Love You So)
TTITLE15=The Rocketeers - Hey Rube
TTITLE16=Hedda Brooks - Old Man River
TTITLE17=The Cadets - Church Bells May Ring
TTITLE18=Curley Williams - This Heart of Mine
TTITLE19=Jesse Belvin - Just to Say Hello
TTITLE20=Etta James - Number One (My One and Only)
TTITLE21=Jimmy Beasley - My Happiness
TTITLE22=Dolly Cooper - Every Day and Every Night
TTITLE23=Elmore James - Wild About You
TTITLE24=The Cliques - My Desire
EXTD=
EXTT0=
EXTT1=
EXTT2=
EXTT3=
EXTT4=
EXTT5=
EXTT6=
EXTT7=
EXTT8=
EXTT9=
EXTT10=
EXTT11=
EXTT12=
EXTT13=
EXTT14=
EXTT15=
EXTT16=
EXTT17=
EXTT18=
EXTT19=
EXTT20=
EXTT21=
EXTT22=
EXTT23=
EXTT24=
PLAYORDER=
